<svg width="104" height="104" viewBox="0 0 104 104" fill="none" xmlns="http://www.w3.org/2000/svg">
<path d="M52 98.5833C26.3033 98.5833 5.41663 77.6966 5.41663 52C5.41663 26.3033 26.3033 5.41663 52 5.41663C77.6966 5.41663 98.5833 26.3033 98.5833 52C98.5833 77.6966 77.6966 98.5833 52 98.5833ZM52 11.9166C29.9 11.9166 11.9166 29.9 11.9166 52C11.9166 74.1 29.9 92.0833 52 92.0833C74.1 92.0833 92.0833 74.1 92.0833 52C92.0833 29.9 74.1 11.9166 52 11.9166Z" fill="#EC3737"/>
<path d="M39.7367 67.5134C38.9134 67.5134 38.0901 67.2101 37.4401 66.5601C36.1834 65.3034 36.1834 63.2234 37.4401 61.9667L61.9667 37.4401C63.2234 36.1834 65.3034 36.1834 66.5601 37.4401C67.8167 38.6967 67.8167 40.7767 66.5601 42.0334L42.0334 66.5601C41.4267 67.2101 40.5601 67.5134 39.7367 67.5134Z" fill="#EC3737"/>
<path d="M64.2634 67.5134C63.4401 67.5134 62.6167 67.2101 61.9667 66.5601L37.4401 42.0334C36.1834 40.7767 36.1834 38.6967 37.4401 37.4401C38.6967 36.1834 40.7767 36.1834 42.0334 37.4401L66.5601 61.9667C67.8167 63.2234 67.8167 65.3034 66.5601 66.5601C65.9101 67.2101 65.0867 67.5134 64.2634 67.5134Z" fill="#EC3737"/>
</svg>
